<?xml version="1.0" encoding="utf-8"?>
<!-- Generator: Adobe Illustrator 16.0.3, SVG Export Plug-In . SVG Version: 6.00 Build 0)  -->
<!DOCTYPE svg PUBLIC "-//W3C//DTD SVG 1.1//EN" "http://www.w3.org/Graphics/SVG/1.1/DTD/svg11.dtd">
<svg version="1.1" id="Layer_1" xmlns="http://www.w3.org/2000/svg" xmlns:xlink="http://www.w3.org/1999/xlink" x="0px" y="0px"
	 width="140px" height="30px" viewBox="0 0 140 30" enable-background="new 0 0 140 30" xml:space="preserve">
<g>
	<polygon fill="#FACE36" points="0,1.156 5.537,1.156 10.56,11.915 15.583,1.156 21.12,1.156 13.13,17.056 13.13,28.841 
		7.989,28.841 7.989,17.056 	"/>
	<path fill="#FACE36" d="M23.998,0.92c1.226-1.227,3.283-1.227,4.509,0c1.226,1.226,1.226,3.282,0,4.508
		c-1.227,1.227-3.283,1.227-4.509,0C22.772,4.202,22.772,2.146,23.998,0.92 M23.8,8.908h4.905v19.933H23.8V8.908z"/>
	<path fill="#FACE36" d="M51.105,20.457H37.382c0.118,2.412,1.859,4.509,4.706,4.509c2.017,0,3.639-1.028,4.825-3.085l3.955,1.464
		c-1.701,3.875-4.707,5.812-9.057,5.812c-6.842,0-9.571-5.537-9.571-10.282s2.729-10.282,9.571-10.282
		c3.164,0,5.734,1.305,7.158,3.321c1.424,1.938,2.136,4.271,2.136,6.525V20.457z M37.5,16.581h8.583
		c-0.554-2.531-1.978-3.797-4.271-3.797C39.478,12.784,37.856,14.485,37.5,16.581"/>
	<rect x="54.977" y="0.841" fill="#FACE36" width="4.904" height="28"/>
	<path fill="#FACE36" d="M77.718,10.728V0.841h4.905v28h-4.905v-2.056c-0.632,1.146-2.57,2.372-4.825,2.372
		c-5.854,0-9.097-3.994-9.097-10.282c0-6.289,3.243-10.282,9.097-10.282C74.831,8.593,76.808,9.581,77.718,10.728 M68.938,18.875
		c0,1.898,0.435,3.401,1.305,4.47c0.87,1.066,1.977,1.621,3.322,1.621c1.345,0,2.452-0.514,3.283-1.582
		c0.87-1.067,1.305-2.57,1.305-4.509s-0.435-3.401-1.305-4.47c-0.831-1.067-1.938-1.621-3.283-1.621
		c-1.345,0-2.452,0.554-3.322,1.621C69.373,15.474,68.938,16.977,68.938,18.875"/>
	<path fill="#FACE36" d="M104.331,28.841h-4.904V15.553c0-1.859-0.83-2.769-2.452-2.769c-2.532,0-4.311,3.045-4.311,8.741v7.315
		h-4.905V8.908h4.905v3.204c1.542-2.333,3.48-3.52,5.734-3.52c2.571,0,4.746,1.383,5.576,4.113c1.542-2.73,3.56-4.113,6.091-4.113
		c3.678,0,5.932,2.293,5.932,6.129v14.119h-4.904V15.553c0-1.859-0.831-2.769-2.452-2.769c-2.531,0-4.311,2.927-4.311,8.305V28.841z
		"/>
	<path fill="#FACE36" d="M119.75,18.875c0-2.967,0.91-5.418,2.729-7.356c1.82-1.938,4.271-2.926,7.396-2.926
		s5.576,0.988,7.395,2.926c1.819,1.938,2.729,4.39,2.729,7.356c0,2.966-0.91,5.458-2.729,7.396
		c-1.819,1.938-4.271,2.887-7.395,2.887s-5.576-0.948-7.396-2.887C120.661,24.333,119.75,21.841,119.75,18.875 M124.892,18.875
		c0,1.7,0.435,3.164,1.344,4.351c0.91,1.146,2.097,1.74,3.639,1.74c1.542,0,2.729-0.594,3.638-1.74
		c0.91-1.187,1.345-2.65,1.345-4.351s-0.435-3.164-1.345-4.311c-0.909-1.187-2.096-1.78-3.638-1.78c-1.542,0-2.729,0.594-3.639,1.78
		C125.327,15.711,124.892,17.175,124.892,18.875"/>
</g>
</svg>
