<?xml version="1.0" encoding="utf-8"?>
<!-- Generator: Adobe Illustrator 16.0.3, SVG Export Plug-In . SVG Version: 6.00 Build 0)  -->
<!DOCTYPE svg PUBLIC "-//W3C//DTD SVG 1.1//EN" "http://www.w3.org/Graphics/SVG/1.1/DTD/svg11.dtd">
<svg version="1.1" id="Layer_1" xmlns="http://www.w3.org/2000/svg" xmlns:xlink="http://www.w3.org/1999/xlink" x="0px" y="0px"
	 width="40px" height="40px" viewBox="0 0 40 40" enable-background="new 0 0 40 40" xml:space="preserve">
<circle fill="#474747" cx="20" cy="20" r="20"/>
<path fill="#FFFFFF" d="M33.245,12.738c-0.901,0.4-1.87,0.67-2.886,0.791c1.037-0.621,1.834-1.606,2.209-2.779
	c-0.971,0.576-2.046,0.994-3.19,1.219c-0.917-0.977-2.222-1.586-3.667-1.586c-2.775,0-5.024,2.249-5.024,5.023
	c0,0.395,0.044,0.777,0.13,1.146c-4.176-0.21-7.878-2.21-10.356-5.249c-0.433,0.741-0.68,1.604-0.68,2.525
	c0,1.743,0.887,3.281,2.235,4.182c-0.824-0.025-1.599-0.252-2.276-0.629c0,0.021,0,0.043,0,0.064c0,2.434,1.732,4.465,4.03,4.926
	c-0.421,0.115-0.866,0.177-1.324,0.177c-0.324,0-0.639-0.032-0.945-0.091c0.64,1.996,2.495,3.449,4.694,3.49
	c-1.72,1.348-3.886,2.15-6.24,2.15c-0.406,0-0.806-0.023-1.199-0.07c2.224,1.426,4.865,2.258,7.702,2.258
	c9.242,0,14.295-7.656,14.295-14.296c0-0.218-0.005-0.435-0.015-0.649C31.72,14.631,32.571,13.746,33.245,12.738z"/>
</svg>
