<?xml version="1.0" encoding="utf-8"?>
<!-- Generator: Adobe Illustrator 19.1.0, SVG Export Plug-In . SVG Version: 6.00 Build 0)  -->
<svg version="1.1" id="Layer_1" xmlns="http://www.w3.org/2000/svg" xmlns:xlink="http://www.w3.org/1999/xlink" x="0px" y="0px"
	 viewBox="-51 53 40 40" style="enable-background:new -51 53 40 40;" xml:space="preserve">
<style type="text/css">
	.st0{fill:#474747;}
	.st1{fill:#FFFFFF;}
	.st2{fill:none;stroke:#474747;stroke-linecap:round;stroke-miterlimit:10;}
</style>
<circle class="st0" cx="-31" cy="73" r="20"/>
<path class="st1" d="M-19.2,81.2c0,1.9-1.6,3.5-3.5,3.5h-15.8c-1.9,0-3.5-1.6-3.5-3.5V65.4c0-1.9,1.6-3.5,3.5-3.5h15.8
	c1.9,0,3.5,1.6,3.5,3.5V81.2L-19.2,81.2z"/>
<path class="st0" d="M-30.3,75.8c1.7,0,3.1-1.4,3.1-3.1c0-1.7-1.4-3.1-3.1-3.1s-3.1,1.4-3.1,3.1C-33.4,74.4-32,75.8-30.3,75.8z"/>
<path class="st0" d="M-23.7,66.8c1,0,1.7-0.8,1.7-1.7c0-1-0.8-1.7-1.7-1.7c-1,0-1.7,0.8-1.7,1.7C-25.4,66-24.7,66.8-23.7,66.8z"/>
<path class="st0" d="M-24.2,72.8c0,3.4-2.8,6.1-6.1,6.1s-6.1-2.8-6.1-6.1c0-0.7,0.1-1.4,0.3-2h-3V79c0,1.4,1.1,2.6,2.6,2.6h11.9
	c1.4,0,2.6-1.1,2.6-2.6V68.1h-4.4C-25,69.2-24.2,70.8-24.2,72.8z"/>
<path class="st0" d="M114.8,67.8c-13.3,0-24,10.7-24,24s10.7,24,24,24s24-10.7,24-24S128.1,67.8,114.8,67.8z"/>
<line class="st2" x1="-37.9" y1="61.9" x2="-37.9" y2="66.3"/>
<line class="st2" x1="-36.2" y1="61.9" x2="-36.2" y2="66.3"/>
<line class="st2" x1="-39.7" y1="61.9" x2="-39.7" y2="66.3"/>
</svg>
